<svg width="109" height="92" viewBox="0 0 109 92" fill="none" xmlns="http://www.w3.org/2000/svg">
<path d="M75.3706 2.28188C68.442 0.425345 61.4302 2.54996 56.5897 7.16557C54.0607 4.12574 50.6363 1.77961 46.5289 0.679102C35.958 -2.1533 25.0681 4.13393 22.2356 14.7048C22.0275 15.4816 21.9727 16.2627 21.8611 17.0396C12.3415 16.05 3.23275 22.0095 0.677226 31.5469C-1.85494 40.9971 2.92339 50.6602 11.5117 54.6333C11.0448 55.6456 10.6096 56.6886 10.3113 57.8014C7.47892 68.3723 13.7724 79.2388 24.3433 82.0712C29.521 83.4587 34.7534 82.6439 39.097 80.2254C41.4908 85.3466 45.9541 89.4684 51.8377 91.0448C60.2324 93.2942 68.7508 89.7309 73.3498 82.9014C75.2127 84.2202 77.2834 85.3111 79.6159 85.9362C90.1868 88.7686 101.053 82.475 103.886 71.9041C105.31 66.5885 104.429 61.2092 101.858 56.8005C104.402 54.3742 106.394 51.3007 107.37 47.6585C110.202 37.0875 103.909 26.221 93.3379 23.3886C92.2251 23.0906 91.1105 22.9227 90.0006 22.8208C90.6584 13.5379 84.6923 4.77965 75.3706 2.28188Z" fill="#FFDB4D"/>
</svg>
