<svg width="507" height="122" viewBox="0 0 507 122" fill="none" xmlns="http://www.w3.org/2000/svg">
<path d="M168.737 94V29.3936H183.689L213.039 66.8653V29.3936H227.99V94H213.961L183.689 55.0516V94H168.737ZM237.941 94V45.176H252.893V94H237.941ZM245.417 40.6536C243.14 40.6536 241.202 39.8537 239.602 38.2539C238.002 36.6542 237.202 34.716 237.202 32.4394C237.202 30.1628 238.002 28.2246 239.602 26.6248C241.202 25.025 243.14 24.2251 245.417 24.2251C247.693 24.2251 249.631 25.025 251.231 26.6248C252.831 28.2246 253.631 30.1628 253.631 32.4394C253.631 34.716 252.831 36.6542 251.231 38.2539C249.631 39.8537 247.693 40.6536 245.417 40.6536ZM262.096 94V45.176H277.048V48.3141C280.494 45.6068 284.554 44.2531 289.231 44.2531C292.307 44.2531 295.076 44.8376 297.537 46.0067C299.998 47.1758 302.06 48.8371 303.721 50.9906C305.69 48.8371 308.028 47.1758 310.735 46.0067C313.443 44.8376 316.396 44.2531 319.596 44.2531C323.288 44.2531 326.549 45.0838 329.379 46.7451C332.209 48.4064 334.424 50.7137 336.024 53.6672C337.686 56.6206 338.516 60.0355 338.516 63.9119V94H323.564V65.9424C323.564 63.2351 322.826 61.0815 321.349 59.4817C319.934 57.882 318.027 57.0821 315.627 57.0821C313.966 57.0821 312.458 57.3897 311.105 58.005C309.751 58.6203 308.582 59.5433 307.597 60.7739C307.659 61.2661 307.69 61.7891 307.69 62.3429C307.751 62.8351 307.782 63.3581 307.782 63.9119V94H292.83V65.9424C292.83 63.2351 292.092 61.0815 290.615 59.4817C289.2 57.882 287.293 57.0821 284.893 57.0821C283.232 57.0821 281.724 57.3897 280.37 58.005C279.078 58.5588 277.971 59.4202 277.048 60.5893V94H262.096ZM347.361 94V29.3936L362.312 27.0863V48.591C366.127 45.8836 370.434 44.53 375.234 44.53C379.91 44.53 384.125 45.6683 387.878 47.9449C391.631 50.16 394.616 53.1749 396.831 56.9898C399.046 60.7431 400.153 64.9579 400.153 69.6342C400.153 74.3104 399.015 78.556 396.738 82.3709C394.523 86.1242 391.478 89.1084 387.601 91.3235C383.786 93.5385 379.51 94.6461 374.772 94.6461C372.496 94.6461 370.28 94.3692 368.127 93.8154C365.973 93.2001 363.974 92.3387 362.128 91.2312V94H347.361ZM372.649 82.0017C375.111 82.0017 377.295 81.4787 379.202 80.4327C381.11 79.3251 382.617 77.8484 383.725 76.0025C384.894 74.0951 385.478 71.9723 385.478 69.6342C385.478 67.296 384.894 65.204 383.725 63.3581C382.617 61.4507 381.079 59.974 379.11 58.928C377.203 57.8204 375.049 57.2667 372.649 57.2667C370.557 57.2667 368.65 57.6051 366.927 58.2819C365.204 58.8972 363.666 59.8509 362.312 61.1431V78.2176C363.605 79.3867 365.143 80.3096 366.927 80.9864C368.711 81.6633 370.619 82.0017 372.649 82.0017ZM426.313 94.9229C422.498 94.9229 419.114 94.0923 416.161 92.431C413.269 90.7697 410.992 88.4623 409.331 85.5089C407.67 82.4939 406.839 79.079 406.839 75.2642V45.176H421.791V73.2337C421.791 75.8795 422.59 78.033 424.19 79.6943C425.852 81.2941 428.005 82.094 430.651 82.094C432.558 82.094 434.25 81.7556 435.727 81.0787C437.204 80.4019 438.434 79.4482 439.419 78.2176V45.176H454.371V94H439.419V90.6774C435.727 93.5078 431.359 94.9229 426.313 94.9229ZM482.92 94.9229C478.305 94.9229 474.029 94.3999 470.091 93.3539C466.153 92.2464 462.738 90.6466 459.846 88.5546L466.953 78.4945C470.03 80.3404 472.829 81.694 475.352 82.5554C477.875 83.3553 480.367 83.7553 482.828 83.7553C485.289 83.7553 487.227 83.4169 488.642 82.74C490.119 82.0017 490.857 81.048 490.857 79.8789C490.857 78.9559 490.457 78.2176 489.658 77.6638C488.858 77.0485 487.596 76.6178 485.873 76.3717L476.183 74.895C471.322 74.1566 467.599 72.5568 465.015 70.0956C462.492 67.5729 461.231 64.3118 461.231 60.3124C461.231 56.9898 462.061 54.1594 463.723 51.8213C465.446 49.4216 467.876 47.6065 471.014 46.3759C474.152 45.0838 477.905 44.4377 482.274 44.4377C485.843 44.4377 489.381 44.9299 492.888 45.9144C496.395 46.8989 499.656 48.3756 502.671 50.3446L495.564 59.9432C492.919 58.405 490.396 57.2974 487.996 56.6206C485.597 55.8822 483.197 55.5131 480.797 55.5131C478.89 55.5131 477.352 55.8515 476.183 56.5283C475.013 57.1436 474.429 57.9743 474.429 59.0203C474.429 60.0047 474.86 60.8046 475.721 61.4199C476.582 61.9737 478.059 62.4044 480.151 62.7121L489.842 64.1888C494.641 64.8656 498.333 66.4654 500.918 68.9881C503.563 71.4493 504.886 74.5873 504.886 78.4022C504.886 81.6017 503.932 84.4321 502.025 86.8933C500.118 89.3545 497.503 91.3235 494.18 92.8002C490.919 94.2154 487.166 94.9229 482.92 94.9229Z" fill="#FFF8DE"/>
<path d="M91.898 10.0979C83.4501 7.8343 74.9008 10.4248 68.9988 16.0525C65.9152 12.3461 61.7399 9.48554 56.7318 8.14371C43.8429 4.69021 30.5651 12.3561 27.1115 25.245C26.8577 26.1921 26.7909 27.1445 26.6548 28.0917C15.0478 26.8852 3.94163 34.1515 0.825729 45.7803C-2.26169 57.3027 3.56443 69.0848 14.036 73.9291C13.4668 75.1634 12.936 76.435 12.5724 77.7919C9.11891 90.6808 16.7925 103.93 29.6814 107.384C35.9944 109.075 42.3742 108.082 47.6702 105.133C50.589 111.377 56.0309 116.403 63.2048 118.325C73.4402 121.068 83.8266 116.723 89.434 108.396C91.7055 110.004 94.2302 111.334 97.0742 112.096C109.963 115.55 123.212 107.876 126.666 94.9871C128.403 88.5059 127.328 81.947 124.193 76.5716C127.296 73.6131 129.724 69.8657 130.914 65.4249C134.368 52.5358 126.694 39.2865 113.805 35.833C112.448 35.4696 111.089 35.2649 109.736 35.1407C110.538 23.8222 103.264 13.1434 91.898 10.0979Z" fill="#FFF8DE"/>
</svg>
