<svg width="73" height="62" viewBox="0 0 73 62" fill="none" xmlns="http://www.w3.org/2000/svg">
<path d="M50.3482 1.52431C45.7198 0.284134 41.0359 1.7034 37.8024 4.78666C36.113 2.75603 33.8255 1.18879 31.0817 0.453646C24.0202 -1.43842 16.7457 2.7615 14.8536 9.82295C14.7146 10.3418 14.6779 10.8636 14.6034 11.3826C8.24422 10.7215 2.1595 14.7025 0.452393 21.0736C-1.23912 27.3864 1.95285 33.8414 7.6899 36.4955C7.37804 37.1718 7.08727 37.8684 6.88807 38.6118C4.99598 45.6732 9.20011 52.9321 16.2616 54.8242C19.7203 55.7511 23.2156 55.2068 26.1171 53.5912C27.7162 57.0122 30.6977 59.7656 34.628 60.8187C40.2357 62.3213 45.9261 59.941 48.9983 55.3788C50.2427 56.2598 51.6259 56.9885 53.1841 57.4061C60.2455 59.2982 67.5044 55.094 69.3965 48.0325C70.348 44.4817 69.7593 40.8883 68.0417 37.9432C69.7415 36.3224 71.0721 34.2693 71.724 31.8363C73.6161 24.7748 69.4119 17.5158 62.3505 15.6238C61.6072 15.4247 60.8626 15.3125 60.1212 15.2445C60.5606 9.04343 56.5751 3.19284 50.3482 1.52431Z" fill="#FFDB4D"/>
</svg>
