<svg width="73" height="62" viewBox="0 0 73 62" fill="none" xmlns="http://www.w3.org/2000/svg">
<path d="M50.3887 2.25625C45.7603 1.01607 41.0764 2.43533 37.8429 5.5186C36.1535 3.48796 33.866 1.92073 31.1222 1.18558C24.0608 -0.706488 16.7862 3.49343 14.8941 10.5549C14.7551 11.0738 14.7185 11.5955 14.6439 12.1145C8.28474 11.4535 2.20003 15.4345 0.49292 21.8056C-1.19859 28.1183 1.99338 34.5734 7.73042 37.2274C7.41857 37.9037 7.1278 38.6004 6.92859 39.3437C5.03651 46.4052 9.24064 53.6641 16.3021 55.5561C19.7608 56.483 23.2561 55.9388 26.1576 54.3231C27.7568 57.7442 30.7382 60.4975 34.6685 61.5506C40.2762 63.0532 45.9667 60.673 49.0388 56.1108C50.2832 56.9917 51.6665 57.7205 53.2246 58.1381C60.2861 60.0301 67.5449 55.8259 69.4371 48.7645C70.3885 45.2136 69.7998 41.6202 68.0823 38.6752C69.7821 37.0543 71.1126 35.0012 71.7645 32.5682C73.6566 25.5067 69.4525 18.2478 62.391 16.3557C61.6477 16.1566 60.9031 16.0445 60.1617 15.9764C60.6011 9.77536 56.6157 3.92478 50.3887 2.25625Z" fill="#FFF8DE"/>
</svg>
