<svg width="73" height="62" viewBox="0 0 73 62" fill="none" xmlns="http://www.w3.org/2000/svg">
<path d="M50.3887 2.25637C45.7603 1.01619 41.0764 2.43545 37.8429 5.51872C36.1535 3.48808 33.866 1.92085 31.1222 1.1857C24.0608 -0.706366 16.7862 3.49355 14.8941 10.555C14.7551 11.0739 14.7185 11.5957 14.6439 12.1146C8.28474 11.4536 2.20003 15.4346 0.49292 21.8057C-1.19859 28.1185 1.99338 34.5735 7.73042 37.2276C7.41857 37.9038 7.1278 38.6005 6.92859 39.3438C5.03651 46.4053 9.24064 53.6642 16.3021 55.5563C19.7608 56.4832 23.2561 55.9389 26.1576 54.3233C27.7568 57.7443 30.7382 60.4977 34.6685 61.5507C40.2762 63.0533 45.9667 60.6731 49.0388 56.1109C50.2832 56.9919 51.6665 57.7206 53.2246 58.1382C60.2861 60.0302 67.5449 55.826 69.4371 48.7646C70.3885 45.2137 69.7998 41.6203 68.0823 38.6753C69.7821 37.0545 71.1126 35.0013 71.7645 32.5683C73.6566 25.5068 69.4525 18.2479 62.391 16.3558C61.6477 16.1567 60.9031 16.0446 60.1617 15.9765C60.6011 9.77549 56.6157 3.9249 50.3887 2.25637Z" fill="#FFF8DE"/>
</svg>
