<svg width="175" height="224" viewBox="0 0 175 224" fill="none" xmlns="http://www.w3.org/2000/svg">
<path d="M123.354 209.426L115.175 200.914L123.358 192.346L124.084 191.586L123.358 190.827L117.88 185.09L117.154 184.33L116.428 185.09L108.245 193.658L100.115 185.094L99.3893 184.33L98.6594 185.09L93.1803 190.827L92.4587 191.586L93.1763 192.346L101.314 200.914L93.1803 209.43L92.4546 210.19L93.1803 210.95L98.6594 216.687L99.3853 217.447L100.111 216.687L108.245 208.171L116.432 216.691L117.154 217.447L117.88 216.687L123.358 210.95L124.084 210.186L123.354 209.426Z" fill="#FAF7EC"/>
<path d="M77.9375 183.826V223.965H88.1075V179.062L77.9375 183.826Z" fill="#FAF7EC"/>
<path d="M61.5718 207.993C61.3976 211.415 58.6934 214.138 55.3794 214.138C52.0655 214.138 49.1787 211.232 49.1787 207.645C49.1787 204.058 51.9534 201.153 55.3794 201.153C58.8054 201.153 61.3976 203.876 61.5718 207.298V207.993ZM61.5718 191.5V192.907C59.6763 192.034 57.5819 191.543 55.3794 191.543C46.8851 191.547 40 198.752 40 207.645C40 216.539 46.8851 223.748 55.3794 223.748C57.5819 223.748 59.6763 223.257 61.5718 222.384V223.965H71.7418V191.504H61.5718V191.5Z" fill="#FAF7EC"/>
<path d="M26.5413 168.431C25.3683 168.431 24.2091 168.217 23.0637 167.789C21.9182 167.362 20.897 166.768 20 166.009L21.9872 163.422C22.8705 164.139 23.6847 164.657 24.4299 164.974C25.1751 165.278 25.9686 165.43 26.8104 165.43C27.3624 165.43 27.8316 165.374 28.2181 165.264C28.6045 165.154 28.9012 164.995 29.1082 164.788C29.3152 164.567 29.4187 164.312 29.4187 164.022C29.4187 163.622 29.2669 163.311 28.9633 163.09C28.6597 162.87 28.1422 162.697 27.4107 162.573L24.2229 162.014C23.0499 161.807 22.1459 161.358 21.5111 160.668C20.8763 159.978 20.5589 159.102 20.5589 158.04C20.5589 157.101 20.7935 156.294 21.2627 155.618C21.7457 154.941 22.4288 154.424 23.3121 154.065C24.2091 153.706 25.2717 153.527 26.4999 153.527C27.5763 153.527 28.6597 153.713 29.7499 154.086C30.8401 154.445 31.7854 154.948 32.5858 155.597L30.7021 158.226C29.2117 157.08 27.7281 156.508 26.2515 156.508C25.7685 156.508 25.3476 156.563 24.9888 156.673C24.6438 156.77 24.3747 156.915 24.1815 157.108C24.0021 157.287 23.9124 157.508 23.9124 157.77C23.9124 158.129 24.0435 158.405 24.3057 158.598C24.5817 158.792 25.0233 158.943 25.6305 159.054L28.6321 159.551C30.0259 159.771 31.0816 160.234 31.7992 160.938C32.5306 161.641 32.8963 162.552 32.8963 163.67C32.8963 164.65 32.641 165.499 32.1304 166.216C31.6198 166.92 30.8884 167.465 29.9362 167.852C28.984 168.238 27.8523 168.431 26.5413 168.431ZM34.3569 168.224V153.734L37.7103 153.009V158.019C38.5383 157.384 39.5181 157.067 40.6498 157.067C41.5054 157.067 42.2575 157.253 42.9061 157.626C43.5685 157.998 44.086 158.516 44.4586 159.178C44.8312 159.84 45.0176 160.606 45.0176 161.476V168.224H41.6641V161.931C41.6641 161.324 41.4847 160.841 41.1259 160.482C40.7671 160.123 40.2841 159.944 39.6769 159.944C39.249 159.944 38.8695 160.02 38.5383 160.172C38.2209 160.323 37.9449 160.537 37.7103 160.813V168.224H34.3569ZM52.4558 168.431C51.338 168.431 50.3305 168.183 49.4335 167.686C48.5365 167.175 47.8258 166.492 47.3014 165.637C46.777 164.781 46.5148 163.822 46.5148 162.759C46.5148 161.697 46.777 160.737 47.3014 159.882C47.8258 159.012 48.5365 158.329 49.4335 157.833C50.3305 157.322 51.338 157.067 52.4558 157.067C53.5736 157.067 54.581 157.322 55.478 157.833C56.3751 158.329 57.0858 159.012 57.6102 159.882C58.1346 160.737 58.3968 161.697 58.3968 162.759C58.3968 163.822 58.1346 164.781 57.6102 165.637C57.0858 166.492 56.3751 167.175 55.478 167.686C54.581 168.183 53.5736 168.431 52.4558 168.431ZM52.4558 165.533C52.9664 165.533 53.4218 165.409 53.822 165.16C54.2222 164.912 54.5396 164.581 54.7742 164.167C55.0088 163.739 55.1261 163.27 55.1261 162.759C55.1261 162.235 55.0088 161.766 54.7742 161.352C54.5396 160.924 54.2153 160.586 53.8013 160.337C53.4011 160.089 52.9526 159.965 52.4558 159.965C51.959 159.965 51.5036 160.089 51.0896 160.337C50.6893 160.586 50.3719 160.924 50.1373 161.352C49.9027 161.766 49.7854 162.235 49.7854 162.759C49.7854 163.27 49.9027 163.739 50.1373 164.167C50.3719 164.581 50.6893 164.912 51.0896 165.16C51.5036 165.409 51.959 165.533 52.4558 165.533ZM64.2545 168.431C63.3989 168.431 62.6399 168.245 61.9775 167.872C61.3289 167.5 60.8183 166.982 60.4456 166.32C60.073 165.643 59.8867 164.878 59.8867 164.022V157.274H63.2402V163.567C63.2402 164.16 63.4196 164.643 63.7784 165.016C64.151 165.374 64.634 165.554 65.2274 165.554C65.6552 165.554 66.0348 165.478 66.366 165.326C66.6972 165.174 66.9732 164.96 67.194 164.684V157.274H70.5474V168.224H67.194V167.479C66.366 168.114 65.3861 168.431 64.2545 168.431ZM78.1513 168.369C76.8402 168.369 75.8466 168.079 75.1704 167.5C74.508 166.906 74.1768 166.037 74.1768 164.891V160.068H71.9619V157.274H74.1768V154.458L77.5303 153.734V157.274H80.5939V160.068H77.5303V164.229C77.5303 164.712 77.6338 165.057 77.8408 165.264C78.0616 165.457 78.4411 165.554 78.9793 165.554C79.2553 165.554 79.5037 165.54 79.7245 165.512C79.9591 165.471 80.2144 165.409 80.4904 165.326V168.038C80.1868 168.134 79.8004 168.21 79.3312 168.266C78.862 168.335 78.4687 168.369 78.1513 168.369ZM87.2462 168.431C86.1284 168.431 85.1209 168.183 84.2239 167.686C83.3269 167.175 82.6162 166.492 82.0918 165.637C81.5674 164.781 81.3052 163.822 81.3052 162.759C81.3052 161.697 81.5674 160.737 82.0918 159.882C82.6162 159.012 83.3269 158.329 84.2239 157.833C85.1209 157.322 86.1284 157.067 87.2462 157.067C88.364 157.067 89.3714 157.322 90.2684 157.833C91.1655 158.329 91.8762 159.012 92.4006 159.882C92.925 160.737 93.1872 161.697 93.1872 162.759C93.1872 163.822 92.925 164.781 92.4006 165.637C91.8762 166.492 91.1655 167.175 90.2684 167.686C89.3714 168.183 88.364 168.431 87.2462 168.431ZM87.2462 165.533C87.7568 165.533 88.2122 165.409 88.6124 165.16C89.0126 164.912 89.33 164.581 89.5646 164.167C89.7992 163.739 89.9165 163.27 89.9165 162.759C89.9165 162.235 89.7992 161.766 89.5646 161.352C89.33 160.924 89.0057 160.586 88.5917 160.337C88.1915 160.089 87.743 159.965 87.2462 159.965C86.7494 159.965 86.294 160.089 85.88 160.337C85.4797 160.586 85.1623 160.924 84.9277 161.352C84.6931 161.766 84.5758 162.235 84.5758 162.759C84.5758 163.27 84.6931 163.739 84.9277 164.167C85.1623 164.581 85.4797 164.912 85.88 165.16C86.294 165.409 86.7494 165.533 87.2462 165.533ZM99.0449 168.431C98.1893 168.431 97.4303 168.245 96.7679 167.872C96.1193 167.5 95.6086 166.982 95.236 166.32C94.8634 165.643 94.6771 164.878 94.6771 164.022V157.274H98.0306V163.567C98.0306 164.16 98.21 164.643 98.5688 165.016C98.9414 165.374 99.4244 165.554 100.018 165.554C100.446 165.554 100.825 165.478 101.156 165.326C101.488 165.174 101.764 164.96 101.984 164.684V157.274H105.338V168.224H101.984V167.479C101.156 168.114 100.177 168.431 99.0449 168.431ZM112.942 168.369C111.631 168.369 110.637 168.079 109.961 167.5C109.298 166.906 108.967 166.037 108.967 164.891V160.068H106.752V157.274H108.967V154.458L112.321 153.734V157.274H115.384V160.068H112.321V164.229C112.321 164.712 112.424 165.057 112.631 165.264C112.852 165.457 113.231 165.554 113.77 165.554C114.046 165.554 114.294 165.54 114.515 165.512C114.75 165.471 115.005 165.409 115.281 165.326V168.038C114.977 168.134 114.591 168.21 114.122 168.266C113.652 168.335 113.259 168.369 112.942 168.369ZM121.222 168.431C120.187 168.431 119.228 168.314 118.345 168.079C117.461 167.831 116.695 167.472 116.047 167.003L117.641 164.746C118.331 165.16 118.959 165.464 119.525 165.657C120.09 165.837 120.649 165.926 121.201 165.926C121.753 165.926 122.188 165.85 122.505 165.699C122.837 165.533 123.002 165.319 123.002 165.057C123.002 164.85 122.913 164.684 122.733 164.56C122.554 164.422 122.271 164.326 121.884 164.27L119.711 163.939C118.621 163.774 117.786 163.415 117.206 162.863C116.64 162.297 116.357 161.565 116.357 160.668C116.357 159.923 116.544 159.288 116.916 158.764C117.303 158.226 117.848 157.819 118.552 157.543C119.255 157.253 120.097 157.108 121.077 157.108C121.877 157.108 122.671 157.218 123.458 157.439C124.244 157.66 124.976 157.991 125.652 158.433L124.058 160.586C123.465 160.241 122.899 159.992 122.361 159.84C121.822 159.675 121.284 159.592 120.746 159.592C120.318 159.592 119.973 159.668 119.711 159.82C119.449 159.958 119.318 160.144 119.318 160.379C119.318 160.599 119.414 160.779 119.607 160.917C119.801 161.041 120.132 161.138 120.601 161.207L122.775 161.538C123.851 161.69 124.679 162.049 125.259 162.614C125.852 163.166 126.149 163.87 126.149 164.726C126.149 165.443 125.935 166.078 125.507 166.63C125.079 167.182 124.493 167.624 123.747 167.955C123.016 168.272 122.174 168.431 121.222 168.431ZM136.998 168.369C135.687 168.369 134.693 168.079 134.017 167.5C133.355 166.906 133.023 166.037 133.023 164.891V160.068H130.808V157.274H133.023V154.458L136.377 153.734V157.274H139.44V160.068H136.377V164.229C136.377 164.712 136.48 165.057 136.687 165.264C136.908 165.457 137.288 165.554 137.826 165.554C138.102 165.554 138.35 165.54 138.571 165.512C138.806 165.471 139.061 165.409 139.337 165.326V168.038C139.033 168.134 138.647 168.21 138.178 168.266C137.708 168.335 137.315 168.369 136.998 168.369ZM146.093 168.431C144.975 168.431 143.967 168.183 143.07 167.686C142.173 167.175 141.463 166.492 140.938 165.637C140.414 164.781 140.152 163.822 140.152 162.759C140.152 161.697 140.414 160.737 140.938 159.882C141.463 159.012 142.173 158.329 143.07 157.833C143.967 157.322 144.975 157.067 146.093 157.067C147.211 157.067 148.218 157.322 149.115 157.833C150.012 158.329 150.723 159.012 151.247 159.882C151.772 160.737 152.034 161.697 152.034 162.759C152.034 163.822 151.772 164.781 151.247 165.637C150.723 166.492 150.012 167.175 149.115 167.686C148.218 168.183 147.211 168.431 146.093 168.431ZM146.093 165.533C146.603 165.533 147.059 165.409 147.459 165.16C147.859 164.912 148.177 164.581 148.411 164.167C148.646 163.739 148.763 163.27 148.763 162.759C148.763 162.235 148.646 161.766 148.411 161.352C148.177 160.924 147.852 160.586 147.438 160.337C147.038 160.089 146.59 159.965 146.093 159.965C145.596 159.965 145.14 160.089 144.726 160.337C144.326 160.586 144.009 160.924 143.774 161.352C143.54 161.766 143.422 162.235 143.422 162.759C143.422 163.27 143.54 163.739 143.774 164.167C144.009 164.581 144.326 164.912 144.726 165.16C145.14 165.409 145.596 165.533 146.093 165.533Z" fill="white"/>
<path d="M1.02319 135.165V131.53H11.4436V135.165H1.02319ZM13.487 135.165V131.53H23.9074V135.165H13.487ZM25.9508 135.165V131.53H36.3712V135.165H25.9508ZM38.4147 135.165V131.53H48.8351V135.165H38.4147ZM50.8785 135.165V131.53H61.2989V135.165H50.8785ZM63.3423 135.165V131.53H73.7627V135.165H63.3423ZM75.8061 135.165V131.53H86.2265V135.165H75.8061ZM88.27 135.165V131.53H98.6904V135.165H88.27ZM100.734 135.165V131.53H111.154V135.165H100.734ZM113.198 135.165V131.53H123.618V135.165H113.198ZM125.661 135.165V131.53H136.082V135.165H125.661ZM138.125 135.165V131.53H148.546V135.165H138.125ZM150.589 135.165V131.53H161.009V135.165H150.589ZM163.053 135.165V131.53H173.473V135.165H163.053Z" fill="white"/>
<path d="M44.4725 84.0623V70.1113H48.7973L52.2452 76.6882L55.6931 70.1113H60.0179V84.0623H56.7892V74.5556L52.2053 83.0658L47.6214 74.5158V84.0623H44.4725ZM65.3535 84.2416C64.6094 84.2416 63.9451 84.1021 63.3605 83.8231C62.7892 83.5441 62.3374 83.1588 62.0053 82.6672C61.6864 82.1755 61.5269 81.6109 61.5269 80.9731C61.5269 79.9633 61.9056 79.186 62.663 78.6413C63.4336 78.0833 64.5032 77.8042 65.8717 77.8042C66.6955 77.8042 67.4927 77.9039 68.2633 78.1032V77.585C68.2633 77.0535 68.0906 76.6616 67.7451 76.4091C67.4129 76.1434 66.9147 76.0105 66.2504 76.0105C65.8385 76.0105 65.3734 76.077 64.8553 76.2098C64.3504 76.3427 63.7525 76.5553 63.0616 76.8476L61.9056 74.4759C62.7692 74.0906 63.5997 73.8049 64.3969 73.6189C65.2073 73.4196 66.0178 73.32 66.8283 73.32C68.2899 73.32 69.4259 73.6721 70.2364 74.3763C71.0468 75.0672 71.4521 76.0438 71.4521 77.306V84.0623H68.2633V83.4245C67.8381 83.7168 67.3864 83.9294 66.908 84.0623C66.443 84.1818 65.9248 84.2416 65.3535 84.2416ZM64.5962 80.9133C64.5962 81.2455 64.7423 81.5046 65.0346 81.6906C65.3269 81.8766 65.7322 81.9696 66.2504 81.9696C66.6357 81.9696 66.9944 81.9297 67.3266 81.85C67.672 81.7703 67.9843 81.6441 68.2633 81.4714V80.1161C67.9577 80.0364 67.6455 79.9766 67.3266 79.9367C67.0077 79.8969 66.6822 79.877 66.35 79.877C65.792 79.877 65.3601 79.97 65.0546 80.156C64.749 80.3287 64.5962 80.5811 64.5962 80.9133ZM78.2739 84.2018C77.2774 84.2018 76.3673 83.9626 75.5435 83.4843C74.733 82.9927 74.0886 82.3416 73.6103 81.5311C73.132 80.7074 72.8928 79.7906 72.8928 78.7808C72.8928 77.771 73.132 76.8609 73.6103 76.0504C74.1019 75.2266 74.7596 74.5756 75.5833 74.0973C76.4204 73.6189 77.3505 73.3798 78.3735 73.3798C78.8652 73.3798 79.3368 73.4396 79.7886 73.5591C80.2403 73.6787 80.6655 73.8515 81.0641 74.0773V70.1113L84.2928 69.613V84.0623H81.104V83.285C80.2669 83.8962 79.3235 84.2018 78.2739 84.2018ZM78.8319 81.4514C79.2837 81.4514 79.6956 81.385 80.0676 81.2521C80.4396 81.106 80.7718 80.8934 81.0641 80.6144V76.9273C80.7851 76.6616 80.4529 76.4623 80.0676 76.3294C79.6823 76.1833 79.2704 76.1102 78.8319 76.1102C78.3138 76.1102 77.8421 76.2298 77.4169 76.4689C77.005 76.6948 76.6729 77.0137 76.4204 77.4256C76.1812 77.8242 76.0617 78.2759 76.0617 78.7808C76.0617 79.2857 76.1812 79.7441 76.4204 80.156C76.6729 80.5546 77.005 80.8735 77.4169 81.1126C77.8421 81.3385 78.3138 81.4514 78.8319 81.4514ZM91.556 84.2616C90.4798 84.2616 89.5032 84.0224 88.6263 83.5441C87.7627 83.0525 87.0784 82.3948 86.5735 81.571C86.0686 80.7472 85.8162 79.8238 85.8162 78.8007C85.8162 77.7777 86.0553 76.8542 86.5336 76.0305C87.0252 75.2067 87.6896 74.5556 88.5266 74.0773C89.3637 73.5857 90.2938 73.3399 91.3168 73.3399C92.3532 73.3399 93.27 73.5924 94.0672 74.0973C94.8644 74.5889 95.4889 75.2665 95.9406 76.1301C96.4056 76.9937 96.6381 77.9836 96.6381 79.0997V79.8969H89.1245C89.2707 80.2291 89.4633 80.5214 89.7025 80.7738C89.955 81.0263 90.2539 81.2256 90.5994 81.3717C90.9448 81.5046 91.3168 81.571 91.7154 81.571C92.1539 81.571 92.5525 81.5046 92.9112 81.3717C93.27 81.2256 93.5756 81.0263 93.828 80.7738L95.9605 82.6672C95.2962 83.2252 94.6119 83.6304 93.9077 83.8829C93.2168 84.1353 92.4329 84.2616 91.556 84.2616ZM89.0647 77.6448H93.4693C93.363 77.2993 93.1969 77.007 92.971 76.7679C92.7584 76.5154 92.506 76.3228 92.2137 76.1899C91.9214 76.0438 91.6025 75.9707 91.257 75.9707C90.8983 75.9707 90.5728 76.0371 90.2805 76.17C89.9882 76.3028 89.7357 76.4955 89.5231 76.7479C89.3238 76.9871 89.171 77.2861 89.0647 77.6448ZM102.04 84.0623V70.1113L105.269 69.613V74.2567C106.092 73.6721 107.022 73.3798 108.059 73.3798C109.069 73.3798 109.979 73.6256 110.789 74.1172C111.6 74.5955 112.244 75.2466 112.722 76.0703C113.201 76.8808 113.44 77.7909 113.44 78.8007C113.44 79.8105 113.194 80.7273 112.703 81.5511C112.224 82.3616 111.566 83.006 110.729 83.4843C109.906 83.9626 108.982 84.2018 107.959 84.2018C107.468 84.2018 106.989 84.142 106.524 84.0224C106.059 83.8895 105.627 83.7035 105.229 83.4644V84.0623H102.04ZM107.501 81.4714C108.032 81.4714 108.504 81.3584 108.916 81.1325C109.328 80.8934 109.653 80.5745 109.892 80.1759C110.145 79.764 110.271 79.3056 110.271 78.8007C110.271 78.2958 110.145 77.8441 109.892 77.4455C109.653 77.0336 109.321 76.7147 108.896 76.4889C108.484 76.2497 108.019 76.1301 107.501 76.1301C107.049 76.1301 106.637 76.2032 106.265 76.3493C105.893 76.4822 105.561 76.6882 105.269 76.9672V80.6542C105.548 80.9067 105.88 81.106 106.265 81.2521C106.65 81.3983 107.062 81.4714 107.501 81.4714ZM115.927 88.3671C115.675 88.3671 115.429 88.3538 115.19 88.3273C114.95 88.314 114.751 88.2874 114.592 88.2476V85.4972C114.857 85.5504 115.19 85.5769 115.588 85.5769C116.625 85.5769 117.322 85.1252 117.681 84.2217V84.2018L113.635 73.5193H117.202L119.534 80.156L122.245 73.5193H125.733L121.009 84.6004C120.624 85.5171 120.199 86.2479 119.734 86.7927C119.269 87.3507 118.73 87.7493 118.119 87.9885C117.508 88.2409 116.777 88.3671 115.927 88.3671ZM31.582 110.262C30.4527 110.262 29.3366 110.056 28.2338 109.644C27.131 109.232 26.1478 108.661 25.2842 107.93L27.1974 105.438C28.0478 106.129 28.8317 106.628 29.5492 106.933C30.2667 107.226 31.0306 107.372 31.8411 107.372C32.3726 107.372 32.8243 107.319 33.1964 107.212C33.5684 107.106 33.8541 106.953 34.0534 106.754C34.2527 106.541 34.3523 106.295 34.3523 106.016C34.3523 105.631 34.2062 105.332 33.9138 105.12C33.6215 104.907 33.1233 104.741 32.4191 104.621L29.3499 104.083C28.2205 103.884 27.3502 103.452 26.739 102.788C26.1279 102.123 25.8223 101.28 25.8223 100.257C25.8223 99.3532 26.0481 98.5759 26.4999 97.9249C26.9649 97.2738 27.6226 96.7756 28.473 96.4301C29.3366 96.0847 30.3597 95.912 31.5422 95.912C32.5785 95.912 33.6215 96.0913 34.6712 96.4501C35.7208 96.7955 36.631 97.2805 37.4016 97.905L35.588 100.436C34.153 99.3333 32.7247 98.7819 31.303 98.7819C30.838 98.7819 30.4327 98.835 30.0873 98.9413C29.7551 99.0343 29.496 99.1738 29.31 99.3598C29.1373 99.5326 29.0509 99.7452 29.0509 99.9976C29.0509 100.343 29.1771 100.609 29.4296 100.795C29.6953 100.981 30.1205 101.127 30.7051 101.233L33.595 101.712C34.9369 101.924 35.9533 102.369 36.6443 103.047C37.3484 103.725 37.7005 104.601 37.7005 105.678C37.7005 106.621 37.4547 107.438 36.9631 108.129C36.4715 108.807 35.7673 109.331 34.8506 109.704C33.9338 110.076 32.8443 110.262 31.582 110.262ZM39.1067 110.062V99.5193H42.3354V110.062H39.1067ZM40.721 98.5427C40.2294 98.5427 39.8109 98.37 39.4654 98.0245C39.12 97.6791 38.9473 97.2606 38.9473 96.7689C38.9473 96.2773 39.12 95.8588 39.4654 95.5134C39.8109 95.1679 40.2294 94.9952 40.721 94.9952C41.2126 94.9952 41.6312 95.1679 41.9766 95.5134C42.3221 95.8588 42.4948 96.2773 42.4948 96.7689C42.4948 97.2606 42.3221 97.6791 41.9766 98.0245C41.6312 98.37 41.2126 98.5427 40.721 98.5427ZM44.3228 110.062V99.5193H47.5514V100.197C48.2955 99.6123 49.1724 99.32 50.1822 99.32C50.8465 99.32 51.4444 99.4462 51.9759 99.6987C52.5073 99.9511 52.9524 100.31 53.3112 100.775C53.7364 100.31 54.2412 99.9511 54.8259 99.6987C55.4105 99.4462 56.0482 99.32 56.7391 99.32C57.5363 99.32 58.2405 99.4994 58.8517 99.8581C59.4629 100.217 59.9412 100.715 60.2867 101.353C60.6454 101.991 60.8248 102.728 60.8248 103.565V110.062H57.5961V104.004C57.5961 103.419 57.4367 102.954 57.1178 102.608C56.8122 102.263 56.4003 102.09 55.8822 102.09C55.5234 102.09 55.1979 102.157 54.9056 102.29C54.6133 102.422 54.3608 102.622 54.1482 102.887C54.1615 102.994 54.1682 103.107 54.1682 103.226C54.1815 103.333 54.1881 103.445 54.1881 103.565V110.062H50.9594V104.004C50.9594 103.419 50.8 102.954 50.4811 102.608C50.1755 102.263 49.7636 102.09 49.2455 102.09C48.8867 102.09 48.5612 102.157 48.2689 102.29C47.9899 102.409 47.7507 102.595 47.5514 102.848V110.062H44.3228ZM67.9762 110.262C66.9 110.262 65.9301 110.022 65.0665 109.544C64.2028 109.052 63.5186 108.395 63.0137 107.571C62.5088 106.747 62.2563 105.824 62.2563 104.801C62.2563 103.778 62.5088 102.854 63.0137 102.03C63.5186 101.193 64.2028 100.536 65.0665 100.057C65.9301 99.5658 66.9 99.32 67.9762 99.32C69.0525 99.32 70.0224 99.5658 70.886 100.057C71.7497 100.536 72.4339 101.193 72.9388 102.03C73.4437 102.854 73.6961 103.778 73.6961 104.801C73.6961 105.824 73.4437 106.747 72.9388 107.571C72.4339 108.395 71.7497 109.052 70.886 109.544C70.0224 110.022 69.0525 110.262 67.9762 110.262ZM67.9762 107.471C68.4678 107.471 68.9063 107.352 69.2916 107.113C69.6769 106.873 69.9825 106.555 70.2084 106.156C70.4343 105.744 70.5472 105.292 70.5472 104.801C70.5472 104.296 70.4343 103.844 70.2084 103.445C69.9825 103.034 69.6703 102.708 69.2717 102.469C68.8864 102.23 68.4546 102.11 67.9762 102.11C67.4979 102.11 67.0595 102.23 66.6609 102.469C66.2755 102.708 65.97 103.034 65.7441 103.445C65.5182 103.844 65.4053 104.296 65.4053 104.801C65.4053 105.292 65.5182 105.744 65.7441 106.156C65.97 106.555 66.2755 106.873 66.6609 107.113C67.0595 107.352 67.4979 107.471 67.9762 107.471ZM79.2624 110.062V96.1113H82.491L88.8288 104.203V96.1113H92.0574V110.062H89.0281L82.491 101.652V110.062H79.2624ZM97.3797 110.242C96.6356 110.242 95.9713 110.102 95.3867 109.823C94.8154 109.544 94.3636 109.159 94.0314 108.667C93.7126 108.176 93.5531 107.611 93.5531 106.973C93.5531 105.963 93.9318 105.186 94.6891 104.641C95.4598 104.083 96.5293 103.804 97.8979 103.804C98.7216 103.804 99.5188 103.904 100.289 104.103V103.585C100.289 103.054 100.117 102.662 99.7713 102.409C99.4391 102.143 98.9409 102.011 98.2765 102.011C97.8646 102.011 97.3996 102.077 96.8814 102.21C96.3765 102.343 95.7786 102.555 95.0877 102.848L93.9318 100.476C94.7954 100.091 95.6258 99.8049 96.423 99.6189C97.2335 99.4196 98.044 99.32 98.8545 99.32C100.316 99.32 101.452 99.6721 102.263 100.376C103.073 101.067 103.478 102.044 103.478 103.306V110.062H100.289V109.424C99.8643 109.717 99.4125 109.929 98.9342 110.062C98.4692 110.182 97.951 110.242 97.3797 110.242ZM96.6223 106.913C96.6223 107.245 96.7685 107.505 97.0608 107.691C97.3531 107.877 97.7584 107.97 98.2765 107.97C98.6618 107.97 99.0206 107.93 99.3528 107.85C99.6982 107.77 100.01 107.644 100.289 107.471V106.116C99.9839 106.036 99.6716 105.977 99.3528 105.937C99.0339 105.897 98.7084 105.877 98.3762 105.877C97.8181 105.877 97.3863 105.97 97.0807 106.156C96.7751 106.329 96.6223 106.581 96.6223 106.913ZM109.563 110.262C108.566 110.262 107.643 110.149 106.792 109.923C105.942 109.684 105.205 109.338 104.58 108.886L106.115 106.714C106.779 107.113 107.384 107.405 107.928 107.591C108.473 107.764 109.011 107.85 109.543 107.85C110.074 107.85 110.493 107.777 110.798 107.631C111.117 107.471 111.277 107.265 111.277 107.013C111.277 106.814 111.19 106.654 111.018 106.535C110.845 106.402 110.572 106.309 110.2 106.256L108.108 105.937C107.058 105.777 106.254 105.432 105.696 104.9C105.151 104.356 104.879 103.651 104.879 102.788C104.879 102.07 105.058 101.459 105.417 100.954C105.789 100.436 106.314 100.044 106.992 99.7784C107.669 99.4994 108.48 99.3598 109.423 99.3598C110.194 99.3598 110.958 99.4661 111.715 99.6787C112.472 99.8913 113.177 100.21 113.828 100.635L112.293 102.708C111.722 102.376 111.177 102.137 110.659 101.991C110.141 101.831 109.622 101.751 109.104 101.751C108.692 101.751 108.36 101.825 108.108 101.971C107.855 102.104 107.729 102.283 107.729 102.509C107.729 102.721 107.822 102.894 108.008 103.027C108.194 103.147 108.513 103.24 108.965 103.306L111.057 103.625C112.094 103.771 112.891 104.116 113.449 104.661C114.02 105.193 114.306 105.87 114.306 106.694C114.306 107.385 114.1 107.996 113.688 108.528C113.276 109.059 112.712 109.484 111.994 109.803C111.29 110.109 110.479 110.262 109.563 110.262ZM119.703 110.262C118.706 110.262 117.783 110.149 116.933 109.923C116.082 109.684 115.345 109.338 114.72 108.886L116.255 106.714C116.919 107.113 117.524 107.405 118.069 107.591C118.613 107.764 119.151 107.85 119.683 107.85C120.214 107.85 120.633 107.777 120.939 107.631C121.257 107.471 121.417 107.265 121.417 107.013C121.417 106.814 121.33 106.654 121.158 106.535C120.985 106.402 120.713 106.309 120.341 106.256L118.248 105.937C117.198 105.777 116.394 105.432 115.836 104.9C115.292 104.356 115.019 103.651 115.019 102.788C115.019 102.07 115.199 101.459 115.557 100.954C115.929 100.436 116.454 100.044 117.132 99.7784C117.809 99.4994 118.62 99.3598 119.563 99.3598C120.334 99.3598 121.098 99.4661 121.855 99.6787C122.613 99.8913 123.317 100.21 123.968 100.635L122.433 102.708C121.862 102.376 121.317 102.137 120.799 101.991C120.281 101.831 119.763 101.751 119.244 101.751C118.833 101.751 118.5 101.825 118.248 101.971C117.996 102.104 117.869 102.283 117.869 102.509C117.869 102.721 117.962 102.894 118.148 103.027C118.334 103.147 118.653 103.24 119.105 103.306L121.198 103.625C122.234 103.771 123.031 104.116 123.589 104.661C124.161 105.193 124.446 105.87 124.446 106.694C124.446 107.385 124.24 107.996 123.828 108.528C123.416 109.059 122.852 109.484 122.134 109.803C121.43 110.109 120.62 110.262 119.703 110.262ZM125.678 110.062V99.5193H128.906V110.062H125.678ZM127.292 98.5427C126.8 98.5427 126.382 98.37 126.036 98.0245C125.691 97.6791 125.518 97.2606 125.518 96.7689C125.518 96.2773 125.691 95.8588 126.036 95.5134C126.382 95.1679 126.8 94.9952 127.292 94.9952C127.784 94.9952 128.202 95.1679 128.548 95.5134C128.893 95.8588 129.066 96.2773 129.066 96.7689C129.066 97.2606 128.893 97.6791 128.548 98.0245C128.202 98.37 127.784 98.5427 127.292 98.5427ZM130.894 110.062V99.5193H134.122V100.576C134.468 100.15 134.873 99.8315 135.338 99.6189C135.803 99.3931 136.321 99.2801 136.893 99.2801C137.464 99.2934 137.869 99.3798 138.108 99.5392V102.349C137.896 102.243 137.657 102.163 137.391 102.11C137.125 102.057 136.853 102.03 136.574 102.03C136.069 102.03 135.597 102.15 135.159 102.389C134.734 102.615 134.388 102.941 134.122 103.366V110.062H130.894ZM139.496 110.062V99.5193H142.725V110.062H139.496ZM141.111 98.5427C140.619 98.5427 140.2 98.37 139.855 98.0245C139.51 97.6791 139.337 97.2606 139.337 96.7689C139.337 96.2773 139.51 95.8588 139.855 95.5134C140.2 95.1679 140.619 94.9952 141.111 94.9952C141.602 94.9952 142.021 95.1679 142.366 95.5134C142.712 95.8588 142.884 96.2773 142.884 96.7689C142.884 97.2606 142.712 97.6791 142.366 98.0245C142.021 98.37 141.602 98.5427 141.111 98.5427Z" fill="white"/>
<path fill-rule="evenodd" clip-rule="evenodd" d="M108.841 0C110.921 0 112.607 1.68597 112.607 3.76571V21.8116C112.607 23.8914 110.921 25.5773 108.841 25.5773H91.7245C89.6447 25.5773 87.9588 23.8914 87.9588 21.8116V3.76571C87.9588 1.68597 89.6447 0 91.7245 0H108.841ZM100.625 29.485C102.705 29.485 104.391 31.171 104.391 33.2507V51.2966C104.391 53.3764 102.705 55.0623 100.625 55.0623H83.5081C81.4284 55.0623 79.7424 53.3764 79.7424 51.2966V42.0929C79.7424 39.446 77.5966 37.3002 74.9497 37.3002H63.6524C61.5727 37.3002 59.8867 35.6142 59.8867 33.5345V15.4886C59.8867 13.4088 61.5727 11.7228 63.6524 11.7228H80.7693C82.8491 11.7228 84.535 13.4088 84.535 15.4886V24.6923C84.535 27.3392 86.6808 29.485 89.3277 29.485H100.625Z" fill="#FAF7EC"/>
</svg>
