<svg width="42" height="42" viewBox="0 0 42 42" fill="none" xmlns="http://www.w3.org/2000/svg">
<g clip-path="url(#clip0_263_25)">
<path opacity="0.2" d="M9.18742 17.0625C9.18742 13.9296 10.4319 10.9251 12.6472 8.7098C14.8625 6.49453 17.867 5.25 20.9999 5.25C24.1328 5.25 27.1373 6.49453 29.3526 8.7098C31.5679 10.9251 32.8124 13.9296 32.8124 17.0625C32.8124 22.9392 34.1741 27.6609 35.257 29.5312C35.372 29.7304 35.4326 29.9563 35.4328 30.1863C35.433 30.4163 35.3728 30.6424 35.2581 30.8418C35.1435 31.0411 34.9784 31.2069 34.7796 31.3224C34.5807 31.438 34.3549 31.4992 34.1249 31.5H7.87492C7.6452 31.4986 7.41986 31.437 7.22144 31.3212C7.02301 31.2054 6.85844 31.0396 6.74418 30.8403C6.62992 30.641 6.56996 30.4153 6.57031 30.1855C6.57066 29.9558 6.6313 29.7302 6.74617 29.5312C7.82734 27.6609 9.18742 22.9376 9.18742 17.0625Z" fill="#A9A59E"/>
<path d="M15.75 31.5C15.75 32.8924 16.3031 34.2277 17.2877 35.2123C18.2723 36.1969 19.6076 36.75 21 36.75C22.3924 36.75 23.7277 36.1969 24.7123 35.2123C25.6969 34.2277 26.25 32.8924 26.25 31.5" stroke="#F3E6B2" stroke-width="3" stroke-linecap="round" stroke-linejoin="round"/>
<path d="M9.18742 17.0625C9.18742 13.9296 10.4319 10.9251 12.6472 8.7098C14.8625 6.49453 17.867 5.25 20.9999 5.25C24.1328 5.25 27.1373 6.49453 29.3526 8.7098C31.5679 10.9251 32.8124 13.9296 32.8124 17.0625C32.8124 22.9392 34.1741 27.6609 35.2569 29.5312C35.3719 29.7304 35.4326 29.9563 35.4328 30.1863C35.433 30.4163 35.3728 30.6424 35.2581 30.8418C35.1435 31.0411 34.9784 31.2069 34.7795 31.3224C34.5807 31.438 34.3549 31.4992 34.1249 31.5H7.87492C7.6452 31.4986 7.41986 31.437 7.22144 31.3212C7.02301 31.2054 6.85844 31.0396 6.74418 30.8403C6.62992 30.641 6.56996 30.4153 6.57031 30.1855C6.57066 29.9558 6.6313 29.7302 6.74617 29.5312C7.82734 27.6609 9.18742 22.9376 9.18742 17.0625Z" stroke="#F3E6B2" stroke-width="3" stroke-linecap="round" stroke-linejoin="round"/>
</g>
<defs>
<clipPath id="clip0_263_25">
<rect width="42" height="42" fill="white"/>
</clipPath>
</defs>
</svg>
