<svg width="270" height="65" viewBox="0 0 270 65" fill="none" xmlns="http://www.w3.org/2000/svg">
<path d="M89.7989 50V15.6176H97.756L113.375 35.5594V15.6176H121.332V50H113.867L97.756 29.2723V50H89.7989ZM126.628 50V24.0167H134.585V50H126.628ZM130.607 21.6099C129.395 21.6099 128.363 21.1843 127.512 20.3329C126.661 19.4815 126.235 18.45 126.235 17.2385C126.235 16.0269 126.661 14.9954 127.512 14.1441C128.363 13.2927 129.395 12.867 130.607 12.867C131.818 12.867 132.85 13.2927 133.701 14.1441C134.552 14.9954 134.978 16.0269 134.978 17.2385C134.978 18.45 134.552 19.4815 133.701 20.3329C132.85 21.1843 131.818 21.6099 130.607 21.6099ZM139.483 50V24.0167H147.44V25.6867C149.274 24.2459 151.435 23.5255 153.924 23.5255C155.561 23.5255 157.034 23.8366 158.344 24.4588C159.654 25.0809 160.751 25.9651 161.635 27.1111C162.683 25.9651 163.927 25.0809 165.368 24.4588C166.809 23.8366 168.381 23.5255 170.083 23.5255C172.048 23.5255 173.784 23.9676 175.29 24.8517C176.796 25.7358 177.975 26.9638 178.826 28.5355C179.71 30.1073 180.153 31.9247 180.153 33.9876V50H172.195V35.0682C172.195 33.6274 171.803 32.4813 171.017 31.63C170.263 30.7786 169.248 30.3529 167.971 30.3529C167.087 30.3529 166.285 30.5166 165.565 30.8441C164.844 31.1715 164.222 31.6627 163.698 32.3176C163.731 32.5796 163.747 32.8579 163.747 33.1526C163.78 33.4146 163.796 33.6929 163.796 33.9876V50H155.839V35.0682C155.839 33.6274 155.446 32.4813 154.66 31.63C153.907 30.7786 152.892 30.3529 151.615 30.3529C150.731 30.3529 149.929 30.5166 149.208 30.8441C148.521 31.1388 147.931 31.5972 147.44 32.2194V50H139.483ZM184.859 50V15.6176L192.816 14.3896V25.8341C194.847 24.3933 197.139 23.6729 199.693 23.6729C202.182 23.6729 204.425 24.2787 206.422 25.4902C208.42 26.6691 210.008 28.2736 211.186 30.3038C212.365 32.3012 212.955 34.5443 212.955 37.0329C212.955 39.5215 212.349 41.781 211.137 43.8112C209.959 45.8086 208.338 47.3968 206.275 48.5756C204.245 49.7544 201.969 50.3438 199.447 50.3438C198.236 50.3438 197.057 50.1965 195.911 49.9018C194.765 49.5743 193.701 49.1159 192.718 48.5265V50H184.859ZM198.318 43.6147C199.627 43.6147 200.79 43.3364 201.805 42.7797C202.82 42.1903 203.622 41.4044 204.212 40.422C204.834 39.4069 205.145 38.2772 205.145 37.0329C205.145 35.7886 204.834 34.6753 204.212 33.6929C203.622 32.6778 202.804 31.8919 201.756 31.3353C200.741 30.7458 199.595 30.4511 198.318 30.4511C197.204 30.4511 196.189 30.6312 195.272 30.9914C194.355 31.3189 193.537 31.8264 192.816 32.5141V41.6009C193.504 42.223 194.323 42.7142 195.272 43.0744C196.222 43.4346 197.237 43.6147 198.318 43.6147ZM226.877 50.4912C224.846 50.4912 223.045 50.0491 221.474 49.165C219.935 48.2809 218.723 47.0529 217.839 45.4812C216.955 43.8767 216.513 42.0593 216.513 40.0291V24.0167H224.47V38.9485C224.47 40.3566 224.895 41.5026 225.747 42.3868C226.631 43.2381 227.777 43.6638 229.185 43.6638C230.2 43.6638 231.101 43.4837 231.887 43.1235C232.672 42.7633 233.327 42.2558 233.851 41.6009V24.0167H241.808V50H233.851V48.2318C231.887 49.738 229.562 50.4912 226.877 50.4912ZM257.002 50.4912C254.546 50.4912 252.27 50.2128 250.174 49.6562C248.079 49.0668 246.261 48.2154 244.722 47.1021L248.504 41.7482C250.142 42.7306 251.632 43.451 252.974 43.9094C254.317 44.3351 255.643 44.5479 256.953 44.5479C258.263 44.5479 259.294 44.3678 260.047 44.0076C260.833 43.6147 261.226 43.1071 261.226 42.485C261.226 41.9938 261.013 41.6009 260.587 41.3062C260.162 40.9787 259.49 40.7495 258.574 40.6185L253.416 39.8326C250.829 39.4397 248.848 38.5883 247.473 37.2785C246.13 35.936 245.459 34.2005 245.459 32.072C245.459 30.3038 245.901 28.7975 246.785 27.5532C247.702 26.2761 248.996 25.3101 250.666 24.6552C252.336 23.9676 254.333 23.6238 256.658 23.6238C258.557 23.6238 260.44 23.8857 262.307 24.4097C264.173 24.9336 265.908 25.7195 267.513 26.7673L263.731 31.8756C262.323 31.0569 260.98 30.4675 259.703 30.1073C258.426 29.7144 257.149 29.5179 255.872 29.5179C254.857 29.5179 254.038 29.698 253.416 30.0582C252.794 30.3856 252.483 30.8277 252.483 31.3844C252.483 31.9083 252.712 32.334 253.171 32.6614C253.629 32.9561 254.415 33.1854 255.528 33.3491L260.686 34.135C263.24 34.4952 265.204 35.3465 266.58 36.6891C267.988 37.9989 268.692 39.6689 268.692 41.6991C268.692 43.4019 268.184 44.9081 267.169 46.2179C266.154 47.5277 264.762 48.5756 262.994 49.3615C261.259 50.1146 259.261 50.4912 257.002 50.4912Z" fill="#FFDB4D"/>
<path d="M48.9066 5.37398C44.4107 4.16931 39.8609 5.54793 36.72 8.54292C35.079 6.57042 32.8569 5.04807 30.1917 4.33397C23.3325 2.49608 16.2662 6.57574 14.4283 13.435C14.2932 13.939 14.2577 14.4459 14.1852 14.95C8.00816 14.3079 2.09767 18.1749 0.439439 24.3635C-1.20364 30.4956 1.89693 36.7658 7.46971 39.3438C7.16679 40.0007 6.88434 40.6775 6.69084 41.3995C4.85293 48.2588 8.93668 55.3099 15.7959 57.1477C19.1556 58.0481 22.5509 57.5194 25.3693 55.9501C26.9226 59.2731 29.8187 61.9477 33.6365 62.9706C39.0837 64.4301 44.6111 62.118 47.5953 57.6865C48.8041 58.5422 50.1477 59.2501 51.6613 59.6557C58.5205 61.4936 65.5716 57.4098 67.4095 50.5505C68.3337 47.1014 67.7619 43.6108 66.0935 40.7501C67.7446 39.1757 69.037 37.1814 69.6703 34.818C71.5082 27.9587 67.4245 20.9076 60.5652 19.0697C59.8432 18.8763 59.1199 18.7674 58.3997 18.7013C58.8266 12.6778 54.9552 6.99473 48.9066 5.37398Z" fill="#FFDB4D"/>
</svg>
