<svg width="380" height="92" viewBox="0 0 380 92" fill="none" xmlns="http://www.w3.org/2000/svg">
<path d="M126.727 71V22.5693H137.935L159.936 50.6591V22.5693H171.145V71H160.628L137.935 41.8032V71H126.727ZM178.604 71V34.4002H189.812V71H178.604ZM184.208 31.0101C182.501 31.0101 181.048 30.4105 179.849 29.2112C178.65 28.012 178.05 26.5591 178.05 24.8525C178.05 23.1459 178.65 21.6929 179.849 20.4937C181.048 19.2945 182.501 18.6948 184.208 18.6948C185.914 18.6948 187.367 19.2945 188.567 20.4937C189.766 21.6929 190.366 23.1459 190.366 24.8525C190.366 26.5591 189.766 28.012 188.567 29.2112C187.367 30.4105 185.914 31.0101 184.208 31.0101ZM196.711 71V34.4002H207.919V36.7526C210.502 34.7231 213.547 33.7084 217.052 33.7084C219.358 33.7084 221.434 34.1465 223.279 35.0229C225.124 35.8993 226.669 37.1446 227.914 38.759C229.39 37.1446 231.143 35.8993 233.173 35.0229C235.202 34.1465 237.416 33.7084 239.815 33.7084C242.582 33.7084 245.027 34.331 247.148 35.5764C249.27 36.8218 250.931 38.5514 252.13 40.7654C253.375 42.9794 253.998 45.5393 253.998 48.4451V71H242.79V49.9672C242.79 47.9378 242.236 46.3234 241.129 45.1242C240.068 43.9249 238.638 43.3253 236.84 43.3253C235.594 43.3253 234.464 43.5559 233.449 44.0172C232.435 44.4784 231.558 45.1703 230.82 46.0928C230.866 46.4618 230.889 46.8538 230.889 47.269C230.936 47.638 230.959 48.03 230.959 48.4451V71H219.75V49.9672C219.75 47.9378 219.197 46.3234 218.09 45.1242C217.029 43.9249 215.599 43.3253 213.8 43.3253C212.555 43.3253 211.425 43.5559 210.41 44.0172C209.442 44.4323 208.611 45.078 207.919 45.9544V71H196.711ZM260.628 71V22.5693L271.836 20.8396V36.9601C274.696 34.9307 277.925 33.9159 281.522 33.9159C285.028 33.9159 288.187 34.7692 291.001 36.4758C293.814 38.1363 296.051 40.3964 297.712 43.2561C299.372 46.0697 300.203 49.2292 300.203 52.7347C300.203 56.2402 299.349 59.4228 297.643 62.2825C295.982 65.0961 293.699 67.3331 290.793 68.9936C287.934 70.6541 284.728 71.4843 281.176 71.4843C279.47 71.4843 277.809 71.2767 276.195 70.8616C274.581 70.4004 273.081 69.7546 271.698 68.9244V71H260.628ZM279.585 62.0057C281.43 62.0057 283.067 61.6137 284.497 60.8296C285.927 59.9993 287.057 58.8923 287.887 57.5086C288.764 56.0787 289.202 54.4874 289.202 52.7347C289.202 50.982 288.764 49.4137 287.887 48.03C287.057 46.6002 285.904 45.4932 284.428 44.709C282.998 43.8788 281.384 43.4637 279.585 43.4637C278.017 43.4637 276.587 43.7174 275.295 44.2247C274.004 44.686 272.851 45.4009 271.836 46.3695V59.1691C272.805 60.0454 273.958 60.7373 275.295 61.2447C276.633 61.752 278.063 62.0057 279.585 62.0057ZM319.813 71.6919C316.953 71.6919 314.416 71.0692 312.202 69.8238C310.034 68.5785 308.328 66.8488 307.082 64.6348C305.837 62.3747 305.214 59.8148 305.214 56.9551V34.4002H316.423V55.433C316.423 57.4163 317.022 59.0307 318.221 60.2761C319.467 61.4753 321.081 62.0749 323.065 62.0749C324.494 62.0749 325.763 61.8212 326.87 61.3139C327.977 60.8065 328.899 60.0916 329.637 59.1691V34.4002H340.846V71H329.637V68.5093C326.87 70.631 323.595 71.6919 319.813 71.6919ZM362.247 71.6919C358.788 71.6919 355.582 71.2998 352.63 70.5157C349.678 69.6855 347.118 68.4862 344.95 66.918L350.278 59.3766C352.584 60.7604 354.683 61.7751 356.574 62.4208C358.465 63.0205 360.333 63.3203 362.178 63.3203C364.023 63.3203 365.476 63.0666 366.536 62.5592C367.643 62.0057 368.197 61.2908 368.197 60.4144C368.197 59.7226 367.897 59.1691 367.298 58.754C366.698 58.2927 365.752 57.9698 364.461 57.7853L357.196 56.6783C353.552 56.1249 350.762 54.9256 348.825 53.0806C346.934 51.1895 345.988 48.7449 345.988 45.7468C345.988 43.2561 346.611 41.1344 347.856 39.3817C349.148 37.5828 350.969 36.2221 353.322 35.2997C355.674 34.331 358.488 33.8467 361.763 33.8467C364.438 33.8467 367.09 34.2157 369.719 34.9537C372.348 35.6917 374.793 36.7987 377.053 38.2747L371.726 45.4701C369.742 44.317 367.851 43.4867 366.052 42.9794C364.253 42.4259 362.454 42.1491 360.656 42.1491C359.226 42.1491 358.073 42.4028 357.196 42.9102C356.32 43.3714 355.882 43.9941 355.882 44.7782C355.882 45.5162 356.205 46.1158 356.85 46.5771C357.496 46.9922 358.603 47.3151 360.171 47.5457L367.436 48.6527C371.034 49.1601 373.801 50.3593 375.738 52.2504C377.722 54.0954 378.713 56.4477 378.713 59.3074C378.713 61.7059 377.998 63.8276 376.569 65.6726C375.139 67.5176 373.178 68.9936 370.688 70.1006C368.243 71.1614 365.43 71.6919 362.247 71.6919Z" fill="#FFDB4D"/>
<path d="M69.1261 7.56978C62.7933 5.8729 56.3845 7.81482 51.9602 12.0335C49.6487 9.25508 46.5187 7.11071 42.7645 6.10484C33.1027 3.516 23.1493 9.26257 20.5604 18.9244C20.3701 19.6344 20.32 20.3483 20.218 21.0584C11.517 20.1539 3.19157 25.601 0.855806 34.3183C-1.45861 42.9558 2.90881 51.7879 10.7586 55.4194C10.3319 56.3446 9.93403 57.2979 9.66146 58.315C7.0726 67.9769 12.8249 77.9089 22.4868 80.4977C27.2192 81.766 32.0017 81.0213 35.9717 78.8107C38.1597 83.4915 42.2392 87.2588 47.6168 88.6997C55.2896 90.7557 63.0756 87.4989 67.279 81.2566C68.9817 82.462 70.8744 83.4591 73.0063 84.0305C82.6682 86.6193 92.6002 80.8669 95.1891 71.205C96.491 66.3465 95.6854 61.4298 93.3354 57.4002C95.6612 55.1825 97.4817 52.3733 98.3736 49.0444C100.963 39.3824 95.2102 29.4503 85.5483 26.8615C84.5313 26.5891 83.5124 26.4356 82.498 26.3425C83.0993 17.8579 77.6462 9.85276 69.1261 7.56978Z" fill="#FFDB4D"/>
</svg>
