<svg width="36" height="36" viewBox="0 0 36 36" fill="none" xmlns="http://www.w3.org/2000/svg">
<g clip-path="url(#clip0_218_232)">
<g filter="url(#filter0_d_218_232)">
<path d="M32.2957 30.7039L25.256 23.6642C27.3004 21.2123 28.3208 18.0666 28.1049 14.8816C27.889 11.6965 26.4534 8.71726 24.0969 6.56366C21.7403 4.41007 18.6442 3.24792 15.4526 3.319C12.261 3.39007 9.21966 4.68889 6.9613 6.94525C4.70294 9.20161 3.40144 12.2418 3.32755 15.4333C3.25365 18.6249 4.41306 21.722 6.56457 24.0805C8.71608 26.439 11.694 27.8771 14.8789 28.0958C18.0638 28.3145 21.2104 27.2969 23.6641 25.2547L30.7038 32.2958C30.8083 32.4003 30.9324 32.4832 31.069 32.5398C31.2056 32.5964 31.3519 32.6255 31.4998 32.6255C31.6476 32.6255 31.7939 32.5964 31.9305 32.5398C32.0671 32.4832 32.1912 32.4003 32.2957 32.2958C32.4002 32.1913 32.4831 32.0672 32.5397 31.9306C32.5963 31.7941 32.6254 31.6477 32.6254 31.4999C32.6254 31.3521 32.5963 31.2057 32.5397 31.0691C32.4831 30.9325 32.4002 30.8085 32.2957 30.7039ZM5.62475 15.7499C5.62475 13.7473 6.21857 11.7898 7.33112 10.1247C8.44367 8.45968 10.025 7.16193 11.8751 6.39559C13.7252 5.62926 15.761 5.42875 17.725 5.81942C19.6891 6.2101 21.4932 7.17441 22.9092 8.59042C24.3252 10.0064 25.2895 11.8105 25.6802 13.7746C26.0709 15.7386 25.8704 17.7744 25.104 19.6245C24.3377 21.4746 23.04 23.056 21.3749 24.1685C19.7099 25.2811 17.7523 25.8749 15.7498 25.8749C13.0654 25.8719 10.4917 24.8042 8.59359 22.906C6.69543 21.0079 5.62773 18.4343 5.62475 15.7499Z" fill="#544B3D"/>
<path d="M30.527 32.4726L30.527 32.4726C30.6548 32.6003 30.8064 32.7017 30.9733 32.7708C31.1402 32.8399 31.3191 32.8755 31.4998 32.8755C31.6804 32.8755 31.8593 32.8399 32.0262 32.7708C32.1931 32.7017 32.3447 32.6003 32.4725 32.4726C32.6002 32.3449 32.7015 32.1932 32.7707 32.0263C32.8398 31.8594 32.8754 31.6805 32.8754 31.4999C32.8754 31.3192 32.8398 31.1403 32.7707 30.9734C32.7015 30.8065 32.6002 30.6549 32.4725 30.5272L25.5928 23.6475C27.5817 21.1727 28.5694 18.0379 28.3543 14.8647C28.1341 11.6154 26.6696 8.57611 24.2655 6.37912C21.8615 4.18212 18.7029 2.99655 15.447 3.06906C12.1911 3.14156 9.08848 4.46656 6.7846 6.76839C4.48073 9.07023 3.153 12.1717 3.07761 15.4275C3.00223 18.6834 4.185 21.843 6.37988 24.249C8.57475 26.655 11.6127 28.1221 14.8618 28.3453C18.0349 28.5631 21.1707 27.5781 23.6472 25.5914L30.527 32.4726ZM5.87475 15.7498C5.87477 13.7967 6.45392 11.8875 7.53899 10.2636C8.62407 8.63968 10.1663 7.37398 11.9708 6.62656C13.7752 5.87915 15.7607 5.68359 17.6763 6.06462C19.5918 6.44565 21.3514 7.38615 22.7324 8.7672C24.1135 10.1482 25.054 11.9078 25.435 13.8234C25.816 15.7389 25.6205 17.7245 24.8731 19.5289C24.1256 21.3333 22.8599 22.8756 21.236 23.9606C19.6122 25.0457 17.703 25.6248 15.75 25.6249C13.1318 25.622 10.6217 24.5806 8.77036 22.7293C6.91907 20.878 5.87771 18.3679 5.87475 15.7498Z" stroke="#544B3D" stroke-width="0.5"/>
</g>
</g>
<defs>
<filter id="filter0_d_218_232" x="-0.675781" y="-0.684082" width="37.3013" height="37.3096" filterUnits="userSpaceOnUse" color-interpolation-filters="sRGB">
<feFlood flood-opacity="0" result="BackgroundImageFix"/>
<feColorMatrix in="SourceAlpha" type="matrix" values="0 0 0 0 0 0 0 0 0 0 0 0 0 0 0 0 0 0 127 0" result="hardAlpha"/>
<feOffset/>
<feGaussianBlur stdDeviation="1.75"/>
<feComposite in2="hardAlpha" operator="out"/>
<feColorMatrix type="matrix" values="0 0 0 0 0 0 0 0 0 0 0 0 0 0 0 0 0 0 0.08 0"/>
<feBlend mode="normal" in2="BackgroundImageFix" result="effect1_dropShadow_218_232"/>
<feBlend mode="normal" in="SourceGraphic" in2="effect1_dropShadow_218_232" result="shape"/>
</filter>
<clipPath id="clip0_218_232">
<rect width="36" height="36" fill="white"/>
</clipPath>
</defs>
</svg>
