<svg width="36" height="36" viewBox="0 0 36 36" fill="none" xmlns="http://www.w3.org/2000/svg">
<path d="M27 15.75C27 17.975 26.3402 20.1501 25.104 22.0002C23.8679 23.8502 22.1109 25.2922 20.0552 26.1436C17.9995 26.9951 15.7375 27.2179 13.5552 26.7838C11.373 26.3498 9.36839 25.2783 7.79505 23.705C6.22171 22.1316 5.15025 20.1271 4.71617 17.9448C4.28209 15.7625 4.50487 13.5005 5.35636 11.4448C6.20785 9.38914 7.64979 7.63213 9.49984 6.39597C11.3499 5.1598 13.525 4.5 15.75 4.5C17.2274 4.5 18.6903 4.79099 20.0552 5.35636C21.4201 5.92172 22.6603 6.75039 23.705 7.79505C24.7496 8.83971 25.5783 10.0799 26.1437 11.4448C26.709 12.8097 27 14.2726 27 15.75Z" fill="#EEEDEC"/>
<path d="M30.527 32.4726L30.527 32.4726C30.6548 32.6003 30.8064 32.7017 30.9733 32.7708C31.1402 32.8399 31.3191 32.8755 31.4998 32.8755C31.6804 32.8755 31.8593 32.8399 32.0262 32.7708C32.1931 32.7017 32.3447 32.6003 32.4725 32.4726C32.6002 32.3449 32.7015 32.1932 32.7707 32.0263C32.8398 31.8594 32.8754 31.6805 32.8754 31.4999C32.8754 31.3192 32.8398 31.1403 32.7707 30.9734C32.7015 30.8065 32.6002 30.6549 32.4725 30.5272L25.5928 23.6475C27.5817 21.1727 28.5694 18.0379 28.3543 14.8647C28.1341 11.6154 26.6696 8.57611 24.2655 6.37912C21.8615 4.18212 18.7029 2.99655 15.447 3.06906C12.1911 3.14156 9.08848 4.46656 6.7846 6.76839C4.48073 9.07023 3.153 12.1717 3.07761 15.4275C3.00223 18.6834 4.185 21.843 6.37988 24.249C8.57475 26.655 11.6127 28.1221 14.8618 28.3453C18.0349 28.5631 21.1707 27.5781 23.6472 25.5914L30.527 32.4726ZM5.87475 15.7498C5.87477 13.7967 6.45392 11.8875 7.53899 10.2636C8.62407 8.63968 10.1663 7.37398 11.9708 6.62656C13.7752 5.87915 15.7607 5.68359 17.6763 6.06462C19.5918 6.44565 21.3514 7.38615 22.7324 8.7672C24.1135 10.1482 25.054 11.9078 25.435 13.8234C25.816 15.7389 25.6205 17.7245 24.8731 19.5289C24.1257 21.3333 22.8599 22.8756 21.236 23.9606C19.6121 25.0457 17.7028 25.6249 15.7498 25.6249C13.1317 25.6219 10.6216 24.5805 8.77036 22.7293C6.91907 20.878 5.87771 18.3679 5.87475 15.7498Z" fill="#544B3D" stroke="#544B3D" stroke-width="0.5"/>
</svg>
