<svg width="36" height="36" viewBox="0 0 36 36" fill="none" xmlns="http://www.w3.org/2000/svg">
<path opacity="0.2" d="M27 15.75C27 17.975 26.3402 20.1501 25.104 22.0002C23.8679 23.8502 22.1109 25.2922 20.0552 26.1436C17.9995 26.9951 15.7375 27.2179 13.5552 26.7838C11.373 26.3498 9.36839 25.2783 7.79505 23.705C6.22171 22.1316 5.15025 20.1271 4.71617 17.9448C4.28209 15.7625 4.50487 13.5005 5.35636 11.4448C6.20785 9.38914 7.64979 7.63213 9.49984 6.39597C11.3499 5.1598 13.525 4.5 15.75 4.5C17.2274 4.5 18.6903 4.79099 20.0552 5.35636C21.4201 5.92172 22.6603 6.75039 23.705 7.79505C24.7496 8.83971 25.5783 10.0799 26.1437 11.4448C26.709 12.8097 27 14.2726 27 15.75Z" fill="black"/>
<path d="M32.2957 30.7039L25.256 23.6642C27.3004 21.2123 28.3208 18.0666 28.1049 14.8816C27.889 11.6965 26.4534 8.71726 24.0969 6.56366C21.7403 4.41007 18.6442 3.24792 15.4526 3.319C12.261 3.39007 9.21966 4.68889 6.9613 6.94525C4.70294 9.20161 3.40144 12.2418 3.32755 15.4333C3.25365 18.6249 4.41306 21.722 6.56457 24.0805C8.71608 26.439 11.694 27.8771 14.8789 28.0958C18.0638 28.3145 21.2104 27.2969 23.6641 25.2547L30.7038 32.2958C30.8083 32.4003 30.9324 32.4832 31.069 32.5398C31.2056 32.5964 31.3519 32.6255 31.4998 32.6255C31.6476 32.6255 31.7939 32.5964 31.9305 32.5398C32.0671 32.4832 32.1912 32.4003 32.2957 32.2958C32.4002 32.1913 32.4831 32.0672 32.5397 31.9306C32.5963 31.7941 32.6254 31.6477 32.6254 31.4999C32.6254 31.3521 32.5963 31.2057 32.5397 31.0691C32.4831 30.9325 32.4002 30.8085 32.2957 30.7039ZM5.62475 15.7499C5.62475 13.7473 6.21857 11.7898 7.33112 10.1247C8.44367 8.45968 10.025 7.16193 11.8751 6.39559C13.7252 5.62926 15.761 5.42875 17.725 5.81942C19.6891 6.2101 21.4932 7.17441 22.9092 8.59042C24.3252 10.0064 25.2895 11.8105 25.6802 13.7746C26.0709 15.7386 25.8704 17.7744 25.104 19.6245C24.3377 21.4746 23.0399 23.056 21.3749 24.1685C19.7099 25.2811 17.7523 25.8749 15.7498 25.8749C13.0653 25.8719 10.4917 24.8042 8.59359 22.906C6.69543 21.0079 5.62773 18.4343 5.62475 15.7499Z" fill="#544B3D"/>
</svg>
