<svg width="48" height="48" viewBox="0 0 48 48" fill="none" xmlns="http://www.w3.org/2000/svg">
<path d="M44.6139 20.1018C44.5721 19.8906 44.4853 19.6909 44.3595 19.5161C44.2336 19.3414 44.0716 19.1959 43.8845 19.0893L38.2914 15.9018L38.2689 9.59809C38.2682 9.38099 38.2204 9.16663 38.1288 8.9698C38.0372 8.77298 37.9039 8.59839 37.7382 8.45809C35.7094 6.7419 33.3729 5.42671 30.8532 4.58246C30.6548 4.5153 30.4445 4.49045 30.2359 4.5095C30.0273 4.52855 29.825 4.59109 29.642 4.69309L24.0001 7.84684L18.3526 4.68746C18.1695 4.58489 17.967 4.52188 17.758 4.5025C17.549 4.48312 17.3383 4.50781 17.1395 4.57496C14.6213 5.42463 12.2874 6.74491 10.262 8.46559C10.0966 8.60568 9.96345 8.77997 9.87185 8.97645C9.78024 9.17293 9.73231 9.38693 9.73136 9.60371L9.70324 15.9131L4.11011 19.1006C3.92299 19.2071 3.761 19.3527 3.63514 19.5274C3.50929 19.7021 3.42252 19.9019 3.38074 20.1131C2.86886 22.6854 2.86886 25.3333 3.38074 27.9056C3.42252 28.1168 3.50929 28.3166 3.63514 28.4913C3.761 28.666 3.92299 28.8116 4.11011 28.9181L9.70324 32.1056L9.72574 38.4112C9.72642 38.6283 9.77421 38.8427 9.86583 39.0395C9.95744 39.2363 10.0907 39.4109 10.2564 39.5512C12.2852 41.2674 14.6217 42.5826 17.1414 43.4268C17.3398 43.494 17.5501 43.5189 17.7587 43.4998C17.9673 43.4808 18.1696 43.4182 18.3526 43.3162L24.0001 40.1531L29.6476 43.3125C29.8711 43.437 30.123 43.5016 30.3789 43.5C30.5427 43.4999 30.7054 43.4733 30.8607 43.4212C33.3783 42.5719 35.712 41.253 37.7382 39.5343C37.9037 39.3942 38.0368 39.22 38.1284 39.0235C38.22 38.827 38.2679 38.613 38.2689 38.3962L38.297 32.0868L43.8901 28.8993C44.0772 28.7928 44.2392 28.6472 44.3651 28.4725C44.4909 28.2978 44.5777 28.0981 44.6195 27.8868C45.1285 25.3166 45.1266 22.6713 44.6139 20.1018ZM24.0001 31.5C22.5168 31.5 21.0667 31.0601 19.8333 30.236C18.6 29.4119 17.6387 28.2405 17.071 26.8701C16.5034 25.4996 16.3548 23.9916 16.6442 22.5368C16.9336 21.0819 17.6479 19.7456 18.6968 18.6967C19.7457 17.6478 21.0821 16.9335 22.5369 16.6441C23.9918 16.3547 25.4998 16.5032 26.8702 17.0709C28.2407 17.6385 29.412 18.5998 30.2361 19.8332C31.0602 21.0666 31.5001 22.5166 31.5001 24C31.5001 25.9891 30.7099 27.8967 29.3034 29.3033C27.8969 30.7098 25.9892 31.5 24.0001 31.5Z" fill="#FFF8DE"/>
</svg>
