<svg width="42" height="40" viewBox="0 0 42 40" fill="none" xmlns="http://www.w3.org/2000/svg">
<path d="M41.6136 16.1018C41.5718 15.8906 41.4851 15.6909 41.3592 15.5161C41.2334 15.3414 41.0714 15.1959 40.8842 15.0893L35.2911 11.9018L35.2686 5.59809C35.2679 5.38099 35.2201 5.16663 35.1285 4.9698C35.0369 4.77298 34.9037 4.59839 34.738 4.45809C32.7091 2.7419 30.3727 1.42671 27.853 0.582464C27.6546 0.515301 27.4443 0.490446 27.2357 0.5095C27.027 0.528553 26.8247 0.591092 26.6417 0.693089L20.9999 3.84684L15.3524 0.687464C15.1693 0.584893 14.9667 0.521881 14.7577 0.502503C14.5488 0.483124 14.3381 0.50781 14.1392 0.574964C11.6211 1.42463 9.28719 2.74491 7.26174 4.46559C7.09631 4.60568 6.9632 4.77997 6.8716 4.97645C6.78 5.17293 6.73207 5.38693 6.73112 5.60371L6.70299 11.9131L1.10987 15.1006C0.922746 15.2071 0.760752 15.3527 0.634897 15.5274C0.509041 15.7021 0.422274 15.9019 0.380494 16.1131C-0.131389 18.6854 -0.131389 21.3333 0.380494 23.9056C0.422274 24.1168 0.509041 24.3166 0.634897 24.4913C0.760752 24.666 0.922746 24.8116 1.10987 24.9181L6.70299 28.1056L6.72549 34.4112C6.72617 34.6283 6.77397 34.8427 6.86558 35.0395C6.9572 35.2363 7.09044 35.4109 7.25612 35.5512C9.285 37.2674 11.6214 38.5826 14.1411 39.4268C14.3395 39.494 14.5498 39.5189 14.7585 39.4998C14.9671 39.4808 15.1694 39.4182 15.3524 39.3162L20.9999 36.1531L26.6474 39.3125C26.8709 39.437 27.1228 39.5016 27.3786 39.5C27.5424 39.4999 27.7052 39.4733 27.8605 39.4212C30.3781 38.5719 32.7118 37.253 34.738 35.5343C34.9034 35.3942 35.0365 35.22 35.1281 35.0235C35.2197 34.827 35.2677 34.613 35.2686 34.3962L35.2967 28.0868L40.8899 24.8993C41.077 24.7928 41.239 24.6472 41.3648 24.4725C41.4907 24.2978 41.5775 24.0981 41.6192 23.8868C42.1283 21.3166 42.1264 18.6713 41.6136 16.1018ZM20.9999 27.5C19.5165 27.5 18.0665 27.0601 16.8331 26.236C15.5997 25.4119 14.6384 24.2405 14.0708 22.8701C13.5031 21.4996 13.3546 19.9916 13.644 18.5368C13.9334 17.0819 14.6477 15.7456 15.6966 14.6967C16.7455 13.6478 18.0818 12.9335 19.5367 12.6441C20.9915 12.3547 22.4995 12.5032 23.87 13.0709C25.2404 13.6385 26.4118 14.5998 27.2359 15.8332C28.06 17.0666 28.4999 18.5166 28.4999 20C28.4999 21.9891 27.7097 23.8967 26.3032 25.3033C24.8966 26.7098 22.989 27.5 20.9999 27.5Z" fill="#FFF8DE"/>
</svg>
